<svg width="480" height="560" viewBox="0 0 480 560" fill="none" xmlns="http://www.w3.org/2000/svg">
<path d="M240 0V80C107.768 80 0 187.767 0 320C0 452.233 107.768 560 240 560C372.232 560 480 452.233 480 320C480 267.465 462.807 218.911 434.01 179.323L395.99 217.344C415.344 246.77 426.667 282 426.667 320C426.667 423.409 343.409 506.667 240 506.667C136.591 506.667 53.3333 423.409 53.3333 320C53.3333 216.591 136.591 133.333 240 133.333V213.333L373.333 106.667L240 0Z" fill="white"/>
<path d="M283.381 399.473H246.936V276.737L212.843 297.663L196.619 272.974L250.228 240.527H283.381V399.473Z" fill="white"/>
</svg>
