<svg width="800" height="642" viewBox="0 0 800 642" fill="none" xmlns="http://www.w3.org/2000/svg">
<path d="M481.82 216.235C469.585 204.001 449.748 203.996 437.517 216.231C425.282 228.466 425.282 248.303 437.517 260.534C470.85 293.872 470.85 348.12 437.517 381.458C425.282 393.693 425.282 413.53 437.517 425.76C443.632 431.876 451.652 434.933 459.668 434.933C467.684 434.933 475.704 431.876 481.82 425.756C539.585 367.995 539.585 274.001 481.82 216.235Z" fill="black"/>
<path d="M573.646 124.41C561.411 112.179 541.574 112.179 529.343 124.41C517.108 136.649 517.108 156.482 529.343 168.716C613.312 252.685 613.312 389.315 529.343 473.279C517.108 485.518 517.108 505.351 529.343 517.586C535.458 523.702 543.478 526.759 551.494 526.759C559.51 526.759 567.53 523.702 573.646 517.586C682.042 409.19 682.042 232.81 573.646 124.41Z" fill="black"/>
<path d="M676.118 21.932C663.888 9.70557 644.051 9.69721 631.816 21.932C619.581 34.171 619.581 54.004 631.816 66.2389C699.865 134.289 737.343 224.765 737.343 320.998C737.343 417.235 699.865 507.712 631.816 575.757C619.581 587.996 619.581 607.829 631.816 620.064C637.931 626.179 645.951 629.237 653.967 629.237C661.983 629.237 670.003 626.179 676.118 620.064C756.002 540.18 799.995 433.968 799.995 320.994C800 208.027 756.002 101.82 676.118 21.932Z" fill="black"/>
<path d="M354.897 2.9219C343.77 -2.19509 330.687 -0.352969 321.405 7.62953L122.336 178.7H31.3285C14.0268 178.7 0 192.722 0 210.028V431.976C0 449.282 14.0268 463.304 31.3285 463.304H122.336L321.405 634.375C327.203 639.354 334.475 641.944 341.831 641.944C346.259 641.944 350.716 641.004 354.897 639.082C366.025 633.974 373.156 622.854 373.156 610.615V31.389C373.156 19.1501 366.021 8.02635 354.897 2.9219ZM62.657 241.357H102.62V400.647H62.657V241.357ZM310.499 542.382L165.277 417.586V224.414L310.499 99.6183V542.382Z" fill="black"/>
</svg>

