<svg width="800" height="721" viewBox="0 0 800 721" fill="none" xmlns="http://www.w3.org/2000/svg">
<path d="M734 269.486C715.362 254.237 685.142 254.232 666.51 269.481C647.872 284.729 647.872 309.453 666.51 324.696C717.29 366.246 717.29 433.857 666.51 475.407C647.872 490.656 647.872 515.379 666.51 530.623C675.826 538.244 688.044 542.055 700.255 542.055C712.467 542.055 724.684 538.244 734 530.617C822 458.628 822 341.481 734 269.486Z" fill="black"/>
<path d="M540.648 3.62738C523.696 -2.75006 503.766 -0.454179 489.626 9.49463L186.365 222.704H47.7256C21.3683 222.704 0 240.181 0 261.75V538.369C0 559.938 21.3683 577.415 47.7256 577.415H186.365L489.626 790.625C498.459 796.83 509.537 800.058 520.743 800.058C527.489 800.058 534.278 798.887 540.648 796.492C557.6 790.125 568.463 776.266 568.463 761.012V39.1068C568.463 23.853 557.594 9.9892 540.648 3.62738ZM95.4511 300.795H156.33V499.324H95.4511V300.795ZM473.011 675.971L251.781 520.434V279.68L473.011 124.143V675.971Z" fill="black"/>
</svg>

