<svg width="735" height="602" viewBox="0 0 735 602" fill="none" xmlns="http://www.w3.org/2000/svg">
<path fill-rule="evenodd" clip-rule="evenodd" d="M367 26.0001C367.003 21.1535 365.598 16.4105 362.954 12.3482C360.311 8.286 356.544 5.07968 352.111 3.1195C347.679 1.15932 342.772 0.529788 337.988 1.30752C333.205 2.08525 328.75 4.2367 325.167 7.50006L149 167.667H58.6668C43.1959 167.667 28.3586 173.813 17.4189 184.752C6.47931 195.692 0.333496 210.529 0.333496 226V376C0.333496 408.2 26.4668 434.333 58.6668 434.333H149L325.167 594.5C328.75 597.763 333.205 599.915 337.988 600.693C342.772 601.47 347.679 600.841 352.111 598.881C356.544 596.92 360.311 593.714 362.954 589.652C365.598 585.59 367.003 580.847 367 576V26.0001ZM175.5 211.167L317 82.5001V519.5L175.5 390.833C170.894 386.647 164.891 384.329 158.667 384.333H58.6668C56.4567 384.333 54.3371 383.455 52.7743 381.893C51.2115 380.33 50.3335 378.21 50.3335 376V226C50.3335 223.79 51.2115 221.67 52.7743 220.107C54.3371 218.545 56.4567 217.667 58.6668 217.667H158.667C164.891 217.671 170.894 215.353 175.5 211.167Z" fill="black"/>
<path d="M509.667 175C507.378 172.544 504.618 170.574 501.551 169.207C498.485 167.841 495.174 167.106 491.817 167.047C488.461 166.988 485.126 167.605 482.013 168.863C478.901 170.12 476.073 171.991 473.699 174.365C471.325 176.739 469.453 179.567 468.196 182.68C466.939 185.793 466.321 189.127 466.38 192.484C466.44 195.841 467.174 199.151 468.541 202.218C469.907 205.285 471.877 208.045 474.333 210.333L565 301L474.333 391.667C471.877 393.955 469.907 396.715 468.541 399.782C467.174 402.849 466.44 406.159 466.38 409.516C466.321 412.873 466.939 416.207 468.196 419.32C469.453 422.433 471.325 425.261 473.699 427.635C476.073 430.009 478.901 431.88 482.013 433.137C485.126 434.395 488.461 435.012 491.817 434.953C495.174 434.894 498.485 434.159 501.551 432.793C504.618 431.426 507.378 429.456 509.667 427L600.333 336.333L691 427C693.289 429.456 696.049 431.426 699.115 432.793C702.182 434.159 705.493 434.894 708.849 434.953C712.206 435.012 715.54 434.395 718.653 433.137C721.766 431.88 724.594 430.009 726.968 427.635C729.342 425.261 731.213 422.433 732.471 419.32C733.728 416.207 734.346 412.873 734.286 409.516C734.227 406.159 733.493 402.849 732.126 399.782C730.76 396.715 728.79 393.955 726.333 391.667L635.667 301L726.333 210.333C730.749 205.594 733.154 199.326 733.039 192.849C732.925 186.373 730.301 180.193 725.721 175.613C721.14 171.032 714.961 168.408 708.484 168.294C702.007 168.18 695.739 170.584 691 175L600.333 265.667L509.667 175Z" fill="black"/>
</svg>
