<svg width="568" height="602" viewBox="0 0 568 602" fill="none" xmlns="http://www.w3.org/2000/svg">
<path d="M18.267 597.067C23.5893 599.915 29.5851 601.264 35.6143 600.97C41.6435 600.677 47.4798 598.751 52.5003 595.4L452.5 328.733C457.066 325.689 460.809 321.565 463.398 316.727C465.987 311.889 467.341 306.487 467.341 301C467.341 295.513 465.987 290.111 463.398 285.273C460.809 280.435 457.066 276.311 452.5 273.267L52.5003 6.59999C47.4803 3.25069 41.6452 1.32704 35.6176 1.03426C29.5899 0.74147 23.5958 2.09053 18.2748 4.93752C12.9538 7.78451 8.50553 12.0226 5.40451 17.1997C2.3035 22.3768 0.666092 28.2986 0.666995 34.3333V567.667C0.664573 573.701 2.30044 579.623 5.40007 584.801C8.49971 589.979 12.9468 594.218 18.267 597.067ZM67.3337 96.6333L374 301L67.3337 505.367V96.6333ZM500.667 501V101C500.667 92.1594 504.179 83.681 510.43 77.4298C516.681 71.1786 525.16 67.6667 534 67.6667C542.841 67.6667 551.319 71.1786 557.571 77.4298C563.822 83.681 567.334 92.1594 567.334 101V501C567.334 509.841 563.822 518.319 557.571 524.57C551.319 530.821 542.841 534.333 534 534.333C525.16 534.333 516.681 530.821 510.43 524.57C504.179 518.319 500.667 509.841 500.667 501Z" fill="black"/>
</svg>
