<svg width="734" height="734" viewBox="0 0 734 734" fill="none" xmlns="http://www.w3.org/2000/svg">
<path d="M367 0.333008C294.48 0.333008 223.589 21.8376 163.291 62.1275C102.993 102.417 55.9961 159.683 28.244 226.682C0.49188 293.682 -6.76934 367.406 7.37857 438.533C21.5265 509.659 56.4481 574.993 107.727 626.272C159.007 677.551 224.34 712.473 295.467 726.621C366.593 740.769 440.318 733.508 507.317 705.755C574.317 678.003 631.582 631.007 671.872 570.709C712.162 510.411 733.667 439.519 733.667 367C733.552 269.789 694.884 176.592 626.146 107.854C557.407 39.1154 464.211 0.44769 367 0.333008ZM367 667C307.665 667 249.663 649.405 200.329 616.441C150.994 583.476 112.542 536.623 89.836 481.805C67.1297 426.987 61.1887 366.667 72.7643 308.473C84.3398 250.278 112.912 196.823 154.868 154.868C196.824 112.912 250.278 84.3396 308.473 72.7641C366.667 61.1885 426.987 67.1295 481.805 89.8358C536.623 112.542 583.476 150.994 616.441 200.329C649.405 249.663 667 307.665 667 367C666.903 446.535 635.265 522.785 579.025 579.025C522.785 635.264 446.535 666.903 367 667ZM300.333 233.666L500.333 367L300.333 500.333V233.666Z" fill="black"/>
</svg>
