<svg width="668" height="600" viewBox="0 0 668 600" fill="none" xmlns="http://www.w3.org/2000/svg">
<path d="M200.667 133.333L0.666626 266.667V0L200.667 133.333ZM34 383.333H634C642.84 383.333 651.319 379.821 657.57 373.57C663.821 367.319 667.333 358.841 667.333 350C667.333 341.159 663.821 332.681 657.57 326.43C651.319 320.179 642.84 316.667 634 316.667H34C25.1594 316.667 16.6809 320.179 10.4297 326.43C4.17852 332.681 0.666626 341.159 0.666626 350C0.666626 358.841 4.17852 367.319 10.4297 373.57C16.6809 379.821 25.1594 383.333 34 383.333ZM267.333 133.333C267.333 142.174 270.845 150.652 277.096 156.904C283.348 163.155 291.826 166.667 300.667 166.667H634C642.84 166.667 651.319 163.155 657.57 156.904C663.821 150.652 667.333 142.174 667.333 133.333C667.333 124.493 663.821 116.014 657.57 109.763C651.319 103.512 642.84 100 634 100H300.667C291.826 100 283.348 103.512 277.096 109.763C270.845 116.014 267.333 124.493 267.333 133.333ZM34 600H634C642.84 600 651.319 596.488 657.57 590.237C663.821 583.986 667.333 575.507 667.333 566.667C667.333 557.826 663.821 549.348 657.57 543.096C651.319 536.845 642.84 533.333 634 533.333H34C25.1594 533.333 16.6809 536.845 10.4297 543.096C4.17852 549.348 0.666626 557.826 0.666626 566.667C0.666626 575.507 4.17852 583.986 10.4297 590.237C16.6809 596.488 25.1594 600 34 600Z" fill="black"/>
</svg>
