<svg width="568" height="602" viewBox="0 0 568 602" fill="none" xmlns="http://www.w3.org/2000/svg">
<path d="M115.5 328.733L515.5 595.4C520.52 598.749 526.355 600.673 532.383 600.966C538.411 601.259 544.405 599.91 549.726 597.063C555.047 594.216 559.495 589.978 562.596 584.8C565.697 579.623 567.335 573.702 567.334 567.667V34.3334C567.335 28.2987 565.697 22.3769 562.596 17.1998C559.495 12.0227 555.047 7.78463 549.726 4.93764C544.405 2.09065 538.411 0.741592 532.383 1.03438C526.355 1.32717 520.52 3.25082 515.5 6.60011L115.5 273.267C110.935 276.311 107.192 280.435 104.603 285.273C102.014 290.111 100.66 295.513 100.66 301C100.66 306.487 102.014 311.889 104.603 316.727C107.192 321.565 110.935 325.689 115.5 328.733ZM500.667 96.6334V505.367L194 301L500.667 96.6334ZM0.666992 501V101C0.666992 92.1596 4.17889 83.6811 10.4301 77.4299C16.6813 71.1787 25.1598 67.6668 34.0003 67.6668C42.8409 67.6668 51.3193 71.1787 57.5705 77.4299C63.8218 83.6811 67.3337 92.1596 67.3337 101V501C67.3337 509.841 63.8218 518.319 57.5705 524.57C51.3193 530.822 42.8409 534.333 34.0003 534.333C25.1598 534.333 16.6813 530.822 10.4301 524.57C4.17889 518.319 0.666992 509.841 0.666992 501Z" fill="black"/>
</svg>
