<svg width="800" height="800" viewBox="0 0 800 800" fill="none" xmlns="http://www.w3.org/2000/svg">
<g clip-path="url(#clip0_706_14)">
<path fill-rule="evenodd" clip-rule="evenodd" d="M499.25 551.775C456.913 583.112 588.563 448.487 551.1 499.662C552.038 499.587 550.3 502.425 544.475 509.537C544.475 509.537 644.525 608.912 693.638 659.487C710.688 677.925 679.925 714.725 659.025 695.512C614.55 652.362 509.313 545.125 509.15 544.95L499.25 551.775Z" fill="#B2B2B2"/>
<path d="M352.238 602.025C416.613 601.4 480.338 574.738 526.163 529.45C580.588 475.663 608.613 396.088 598.838 320.113C582.088 189.925 475.063 101.575 350.638 101.575C256.1 101.575 164.225 160.713 123.925 246.463C93.0751 312.113 93.0126 391.375 123.925 457.138C163.938 542.288 254.313 601.113 349.025 602.025C350.1 602.025 351.175 602.025 352.238 602.025ZM349.288 560.313C253.15 559.388 163.45 485.038 145.613 389.713C133.038 322.513 156.775 249.788 206.225 202.063C263.95 146.325 354.688 127.663 430.138 159.25C497.638 187.513 548.163 253.138 557.475 325.438C565.45 387.413 543.213 452.363 499.513 497.1C461.175 536.35 407.413 559.775 351.975 560.313C351.075 560.313 350.188 560.313 349.288 560.313Z" fill="#B2B2B2"/>
</g>
<defs>
<clipPath id="clip0_706_14">
<rect width="800" height="800" fill="white"/>
</clipPath>
</defs>
</svg>
