<svg width="550" height="601" viewBox="0 0 550 601" fill="none" xmlns="http://www.w3.org/2000/svg">
<path d="M113.825 106.162V81.2623C114.363 39.4373 149.637 2.5623 192.287 0.924805C230.687 0.424805 319.088 0.424805 357.488 0.924805C399.313 2.5373 435.4 38.5748 435.95 81.2623V106.162H549.775V156.162H494.25V520.037C493.713 561.887 458.438 598.737 415.775 600.387C322.5 601.575 229.2 600.412 135.9 600.412C93.45 599.862 56.0875 563.412 55.5375 520.037V156.162H0V106.162H113.825ZM444.25 156.162H105.512C105.337 277.662 103.988 399.175 105.538 520.662C106.15 536.287 119.6 549.787 135.275 550.4C228.35 551.587 321.438 551.587 414.5 550.4C430.413 549.787 444.038 535.862 444.25 519.712V156.162ZM385.487 106.162C385.312 95.7873 385.487 81.4998 385.487 81.4998C385.487 81.4998 384.75 51.2748 356.2 50.9123C318.663 50.4248 231.113 50.4248 193.575 50.9123C177.663 51.5248 164.038 65.4373 163.825 81.5873V106.162H385.487Z" fill="white"/>
<path d="M193.75 251.237H156.25V455.325H193.75V251.237Z" fill="white"/>
<path d="M293.637 251.237H256.137V455.325H293.637V251.237Z" fill="white"/>
<path d="M393.75 251.237H356.25V455.325H393.75V251.237Z" fill="white"/>
</svg>
