<svg width="622" height="474" viewBox="0 0 622 474" fill="none" xmlns="http://www.w3.org/2000/svg">
<path d="M329.5 473.5C325.5 473.5 322.5 472.5 319.5 470.5L131.5 362.5H66.5C30.5 362.5 0.5 333.5 0.5 297.5V177.5C0.5 141.5 30.5 111.5 66.5 111.5H131.5L319.5 3.5C322.5 1.5 326.5 0.5 329.5 0.5C365.5 0.5 395.5 30.5 395.5 66.5V406.5C395.5 443.5 366.5 473.5 329.5 473.5ZM66.5 153.5C53.5 153.5 42.5 164.5 42.5 177.5V297.5C42.5 310.5 53.5 321.5 66.5 321.5H137.5C141.5 321.5 144.5 322.5 147.5 324.5L334.5 431.5C345.5 429.5 353.5 419.5 353.5 408.5V67.5C353.5 55.5 345.5 46.5 334.5 44.5L147.5 151.5C144.5 153.5 140.5 154.5 137.5 154.5L66.5 153.5ZM466.5 369.425C462.5 369.425 458.5 368.425 454.5 365.425C444.5 359.425 442.5 345.425 448.5 336.425C468.5 307.425 478.5 273.425 478.5 238.425C478.5 202.425 467.5 167.425 446.5 137.425C439.5 128.425 442.5 114.425 451.5 108.425C460.5 101.425 474.5 104.425 480.5 113.425C506.5 150.425 519.5 193.425 519.5 238.425C519.5 282.425 506.5 324.425 482.5 360.425C480.5 366.425 473.5 369.425 466.5 369.425ZM557.5 413.05C553.5 413.05 550.5 412.05 546.5 410.05C536.5 404.05 533.5 391.05 539.5 381.05C565.5 338.05 579.5 288.05 579.5 237.05C579.5 186.05 565.5 136.05 539.5 93.05C533.5 83.05 536.5 70.05 546.5 64.05C556.5 58.05 569.5 61.05 575.5 71.05C605.5 121.05 621.5 178.05 621.5 237.05C621.5 296.05 605.5 353.05 575.5 403.05C571.5 409.05 564.5 413.05 557.5 413.05Z" fill="black"/>
</svg>
